<svg version="1.1" xmlns="http://www.w3.org/2000/svg" xmlns:xlink="http://www.w3.org/1999/xlink" width="81.57958" height="208.10435" viewBox="0,0,81.57958,208.10435"><g transform="translate(-195.51501,-75.82289)"><g data-paper-data="{&quot;isPaintingLayer&quot;:true}" fill-rule="nonzero" stroke-linecap="butt" stroke-linejoin="miter" stroke-miterlimit="10" stroke-dasharray="" stroke-dashoffset="0" style="mix-blend-mode: normal"><g data-paper-data="{&quot;index&quot;:null}" fill="#ffffff"><path d="M250.71409,174.01329c0.60612,-0.76423 5.12775,-0.05509 10.09932,1.58392c4.97158,1.63901 8.51047,3.58721 7.90435,4.35144c-0.60612,0.76423 -5.12774,0.05509 -10.09931,-1.58392c-4.97157,-1.63901 -8.51047,-3.58721 -7.90435,-4.35144z" data-paper-data="{&quot;index&quot;:null}" stroke="#000000" stroke-width="1.5"/><path d="M267.5551,178.72064c3.14576,0 5.69592,5.78454 5.69592,12.92013c0,7.13559 -2.55015,12.92014 -5.69592,12.92014c-3.14577,0 -5.69592,-5.78455 -5.69592,-12.92014c0,-7.13559 2.55015,-12.92013 5.69592,-12.92013z" data-paper-data="{&quot;index&quot;:null}" stroke="#000000" stroke-width="1.5"/><path d="M264.9927,178.30571c0.21274,-0.01463 0.48354,0.01337 0.81587,0.09911l0.15052,-0.07527l0.82103,0.41054l-0.01351,0.00676c0.09812,0.04315 0.19949,0.08983 0.30415,0.14023l0.07008,-0.03504l0.87083,0.43544c0.11144,0.05572 0.18036,0.1327 0.18036,0.21773c0,0.08345 -0.06638,0.15914 -0.17418,0.21459l0.32098,0.21399c0.07958,0.05187 0.12688,0.11679 0.12688,0.18723c0,0.02352 -0.00527,0.04641 -0.01526,0.06842c0.00999,0.02201 0.01526,0.0449 0.01526,0.06842c0,0.17005 -0.2757,0.30791 -0.61578,0.30791c-0.04574,0 -0.09033,-0.00249 -0.13323,-0.00723l-0.67172,-0.06718l0.01356,-0.0339c-0.08953,0.02538 -0.19303,0.03988 -0.30331,0.03988c-0.20403,0 -0.38487,-0.04962 -0.49692,-0.12603l-0.40194,-0.26797c-0.23569,-0.14753 -0.45261,-0.25798 -0.63768,-0.36409c-0.2804,-0.12957 -0.58071,-0.27096 -0.93129,-0.41721l-0.0115,-0.01399l-0.00868,0.00434l-0.54736,-0.27369l0.23712,-0.11857l-0.25351,-0.30836c0.09347,0.01988 0.18313,0.03904 0.26928,0.0576c0.00211,-0.00375 0.00434,-0.00745 0.00671,-0.01114c-0.4294,-0.15242 -0.8637,-0.26034 -1.2938,-0.28618c0,0 -0.6074,-0.05063 -0.50617,-0.35434c0.10123,-0.30371 0.70862,-0.2531 0.70862,-0.2531c0.75859,0.0745 1.45097,0.28059 2.10459,0.54111z" data-paper-data="{&quot;index&quot;:null}" stroke="none" stroke-width="0.5"/><path d="M262.48866,185.42929c0,0.17005 -0.2757,0.30791 -0.61578,0.30791c-0.34007,0 -0.61577,-0.13786 -0.61577,-0.30791c0,-0.12774 0.15558,-0.23731 0.37715,-0.28393c-0.11639,-0.05602 -0.1888,-0.13471 -0.1888,-0.22187c0,-0.17005 0.27569,-0.3079 0.61577,-0.3079c0.34008,0 0.61577,0.13785 0.61577,0.3079c0,0.12774 -0.15557,0.23732 -0.37714,0.28393c0.11639,0.05602 0.18881,0.13471 0.18881,0.22186z" data-paper-data="{&quot;index&quot;:null}" stroke="none" stroke-width="0.5"/><path d="M262.65454,183.89205c0.01872,-0.00675 0.03907,-0.01288 0.06082,-0.01838c0.02664,0.05575 0.12251,0.08875 0.1569,0.09901l-0.04598,0.00575l0.06756,0.13513c-0.13523,-0.05195 -0.22609,-0.13134 -0.2393,-0.22151z" data-paper-data="{&quot;index&quot;:null}" stroke="none" stroke-width="0.5"/></g><g fill="#ffffff"><path d="M219.68345,172.26329c0.60612,0.76423 -2.93278,2.71243 -7.90435,4.35144c-4.97157,1.639 -9.49319,2.34815 -10.09931,1.58392c-0.60612,-0.76423 2.93277,-2.71243 7.90435,-4.35144c4.97157,-1.639 9.4932,-2.34815 10.09932,-1.58392z" data-paper-data="{&quot;index&quot;:null}" stroke="#000000" stroke-width="1.5"/><path d="M208.53837,189.89077c0,7.13559 -2.55015,12.92014 -5.69592,12.92014c-3.14577,0 -5.69592,-5.78455 -5.69592,-12.92014c0,-7.13559 2.55016,-12.92013 5.69592,-12.92013c3.14577,0 5.69592,5.78454 5.69592,12.92013z" data-paper-data="{&quot;index&quot;:null}" stroke="#000000" stroke-width="1.5"/><path d="M205.40485,176.55572c0.65362,-0.26053 1.346,-0.46662 2.10459,-0.54111c0,0 0.60739,-0.05061 0.70862,0.2531c0.10123,0.30371 -0.50617,0.35434 -0.50617,0.35434c-0.4301,0.02585 -0.8644,0.13376 -1.2938,0.28618c0.00237,0.00369 0.0046,0.0074 0.00671,0.01114c0.08615,-0.01856 0.17581,-0.03772 0.26928,-0.0576l-0.25351,0.30836l0.23712,0.11857l-0.54736,0.27369l-0.00868,-0.00434l-0.0115,0.01399c-0.35058,0.14625 -0.65089,0.28764 -0.93129,0.41721c-0.18507,0.10611 -0.40199,0.21657 -0.63768,0.36409l-0.40194,0.26797c-0.11205,0.07641 -0.29289,0.12603 -0.49692,0.12603c-0.11028,0 -0.21378,-0.0145 -0.30331,-0.03988l0.01356,0.0339l-0.67172,0.06718c-0.0429,0.00474 -0.08749,0.00723 -0.13323,0.00723c-0.34008,0 -0.61578,-0.13786 -0.61578,-0.30791c0,-0.02352 0.00527,-0.04642 0.01526,-0.06842c-0.00999,-0.02201 -0.01526,-0.0449 -0.01526,-0.06842c0,-0.07044 0.0473,-0.13536 0.12688,-0.18723l0.32098,-0.21399c-0.1078,-0.05545 -0.17418,-0.13114 -0.17418,-0.21459c0,-0.08503 0.06892,-0.162 0.18036,-0.21773l0.87083,-0.43544l0.07008,0.03504c0.10466,-0.0504 0.20603,-0.09708 0.30415,-0.14023l-0.01351,-0.00676l0.82103,-0.41054l0.15052,0.07527c0.33233,-0.08573 0.60313,-0.11374 0.81587,-0.09911z" data-paper-data="{&quot;index&quot;:null}" stroke="none" stroke-width="0.5"/><path d="M207.90888,183.67929c0,-0.08715 0.07242,-0.16585 0.18881,-0.22186c-0.22157,-0.04662 -0.37714,-0.1562 -0.37714,-0.28393c0,-0.17005 0.27569,-0.3079 0.61577,-0.3079c0.34008,0 0.61577,0.13785 0.61577,0.3079c0,0.08715 -0.07241,0.16585 -0.1888,0.22187c0.22157,0.04662 0.37715,0.15619 0.37715,0.28393c0,0.17005 -0.2757,0.30791 -0.61577,0.30791c-0.34008,0 -0.61578,-0.13786 -0.61578,-0.30791z" data-paper-data="{&quot;index&quot;:null}" stroke="none" stroke-width="0.5"/><path d="M207.50371,182.36355l0.06756,-0.13513l-0.04598,-0.00575c0.03439,-0.01026 0.13026,-0.04326 0.1569,-0.09901c0.02175,0.00551 0.0421,0.01163 0.06082,0.01838c-0.01321,0.09017 -0.10407,0.16956 -0.2393,0.22151z" data-paper-data="{&quot;index&quot;:null}" stroke="none" stroke-width="0.5"/></g><path d="M241.71772,240.17725c3.03757,0 5.5,9.62588 5.5,21.5c0,11.87412 -2.46243,21.5 -5.5,21.5c-3.03757,0 -5.5,-9.62588 -5.5,-21.5c0,-11.87412 2.46243,-21.5 5.5,-21.5z" fill="#000000" stroke="#000000" stroke-width="1.5"/><path d="M227.21772,239.67725c3.03757,0 5.5,9.62588 5.5,21.5c0,11.87412 -2.46243,21.5 -5.5,21.5c-3.03757,0 -5.5,-9.62588 -5.5,-21.5c0,-11.87412 2.46243,-21.5 5.5,-21.5z" fill="#000000" stroke="#000000" stroke-width="1.5"/><path d="M259.57806,198.44449c0,26.5362 -11.09205,48.04805 -24.77478,48.04805c-13.68273,0 -24.77477,-21.51184 -24.77477,-48.04805c0,-26.5362 11.09204,-48.04804 24.77477,-48.04804c13.68273,0 24.77478,21.51184 24.77478,48.04805z" fill="#fff700" stroke="#000000" stroke-width="2"/><path d="M199.51803,119.46555c0,-18.57535 16.13388,-33.63363 36.03603,-33.63363c19.90215,0 36.03604,15.05829 36.03604,33.63363c0,18.57534 -16.13389,33.63363 -36.03604,33.63363c-19.90216,0 -36.03604,-15.0583 -36.03604,-33.63364z" fill="#ffffff" stroke="#000000" stroke-width="2"/><path d="M236.30481,102.34843c-21.97529,0 -39.78979,-5.71409 -39.78979,-12.76277c0,-7.04868 17.8145,-12.76276 39.78979,-12.76276c21.9753,0 39.78979,5.71408 39.78979,12.76276c0,7.04869 -17.81449,12.76277 -39.78979,12.76277z" fill="#fff900" stroke="#000000" stroke-width="2"/><path d="M264.08258,94.84092c0,1.814 -12.1004,3.28453 -27.02702,3.28453c-14.92661,0 -27.02703,-1.47053 -27.02703,-3.28453c0,-1.814 12.10041,-3.28454 27.02703,-3.28454c14.92661,0 27.02702,1.47054 27.02702,3.28454z" fill="#cecece" stroke="#000000" stroke-width="1.5"/><path d="M232.85119,112.70383c0,3.46739 -4.14234,6.27826 -9.25216,6.27826c-5.10983,0 -9.25216,-2.81087 -9.25216,-6.27826c0,-3.46739 4.14234,-6.27826 9.25216,-6.27826c5.10983,0 9.25216,2.81087 9.25216,6.27826z" fill="#ffffff" stroke="#000000" stroke-width="1"/><path d="M227.56424,114.6234c0,2.18993 -1.77528,3.96521 -3.96521,3.96521c-2.18992,0 -3.96521,-1.77528 -3.96521,-3.96521c0,-2.18993 1.77529,-3.96521 3.96521,-3.96521c2.18992,0 3.96521,1.77528 3.96521,3.96521z" fill="#000000" stroke="#000000" stroke-width="1"/><path d="M257.52141,113.58279c0,3.46738 -4.14234,6.27825 -9.25216,6.27825c-5.10983,0 -9.25216,-2.81087 -9.25216,-6.27825c0,-3.46738 4.14234,-6.27826 9.25216,-6.27826c5.10982,0 9.25216,2.81087 9.25216,6.27826z" fill="#ffffff" stroke="#000000" stroke-width="1"/><path d="M252.23446,115.25236c0,2.18993 -1.77528,3.96522 -3.96521,3.96522c-2.18993,0 -3.96522,-1.77528 -3.96522,-3.96522c0,-2.18993 1.77528,-3.96521 3.96522,-3.96521c2.18993,0 3.96521,1.77528 3.96521,3.96521z" fill="#000000" stroke="#000000" stroke-width="1"/><path d="M231.94849,243.93366c0,-0.27614 0.22386,-0.5 0.5,-0.5c0.27614,0 0.5,0.22386 0.5,0.5c0,0.27614 -0.22386,0.5 -0.5,0.5c-0.27614,0 -0.5,-0.22386 -0.5,-0.5z" fill="#ffffff" stroke="none" stroke-width="0.5"/><path d="M236.05195,142.29396c-6.30525,0 -11.41667,-0.09657 -11.41667,-0.21569c0,-0.11912 5.11142,-0.21569 11.41667,-0.21569c6.30525,0 11.41666,0.09657 11.41666,0.21569c0,0.11913 -5.11141,0.21569 -11.41666,0.21569z" fill="none" stroke="#000000" stroke-width="1.5"/></g></g></svg>