<svg version="1.1" xmlns="http://www.w3.org/2000/svg" xmlns:xlink="http://www.w3.org/1999/xlink" width="53.44054" height="170.87013" viewBox="0,0,53.44054,170.87013"><g transform="translate(-230.33833,-83.63262)"><g data-paper-data="{&quot;isPaintingLayer&quot;:true}" fill-rule="nonzero" stroke-linecap="butt" stroke-linejoin="miter" stroke-miterlimit="10" stroke-dasharray="" stroke-dashoffset="0" style="mix-blend-mode: normal"><g data-paper-data="{&quot;index&quot;:null}"><g fill="#ffffff"><path d="M271.67679,196.15514c-2.60192,-10.88477 -2.60764,-19.81482 -0.01276,-19.9458c2.59487,-0.13098 6.80773,8.5867 9.40965,19.47148c2.60193,10.88478 2.60764,19.81483 0.01276,19.94581c-2.59488,0.13098 -6.80772,-8.58671 -9.40964,-19.47149z" stroke="#000000" stroke-width="1.5"/><g><path d="M259.56192,165.43952c0.94623,-1.00606 4.92453,1.43204 8.88576,5.44565c3.96124,4.01361 6.40538,8.08285 5.45914,9.08891c-0.94623,1.00606 -4.92452,-1.43204 -8.88575,-5.44565c-3.96123,-4.01361 -6.40538,-8.08285 -5.45914,-9.08891z" stroke="#000000" stroke-width="1.5"/><path d="M271.13816,176.32323c0.21024,0.04026 0.45546,0.16383 0.7317,0.39517l0.17995,-0.0722l0.58696,0.87978l-0.01615,0.00649c0.07299,0.09596 0.14739,0.19837 0.22314,0.30752l0.08378,-0.03361l0.62256,0.93314c0.07967,0.11942 0.10851,0.25921 0.06765,0.3911c-0.0401,0.12944 -0.13988,0.22721 -0.2695,0.28132l0.20377,0.42692c0.05109,0.10402 0.06507,0.21872 0.03122,0.32797c-0.0113,0.03649 -0.02733,0.07045 -0.04745,0.10162c-0.00102,0.03708 -0.007,0.07417 -0.0183,0.11065c-0.08172,0.26377 -0.41132,0.39602 -0.73617,0.29538c-0.04369,-0.01353 -0.08509,-0.03059 -0.12379,-0.05063l-0.60935,-0.30299l0.02925,-0.04857c-0.09773,0.01287 -0.20355,0.00472 -0.30889,-0.02791c-0.19489,-0.06038 -0.34379,-0.19086 -0.4141,-0.34255l-0.25516,-0.5346c-0.15424,-0.29859 -0.30836,-0.53412 -0.43415,-0.75348c-0.20557,-0.28396 -0.42449,-0.59215 -0.68908,-0.92276l-0.00427,-0.0251l-0.01038,0.00417l-0.39132,-0.58652l0.28348,-0.11374l-0.09396,-0.55334c0.07973,0.0585 0.15617,0.11474 0.22954,0.16903c0.00381,-0.00519 0.00773,-0.01028 0.01176,-0.0153c-0.33692,-0.36351 -0.69991,-0.65943 -1.09832,-0.8268c0,0 -0.55586,-0.25828 -0.31321,-0.69942c0.24265,-0.44113 0.79851,-0.18288 0.79851,-0.18288c0.68881,0.34005 1.25114,0.86463 1.75028,1.46218z" stroke="none" stroke-width="0.5"/></g><path d="M270.25641,176.06446c0.2236,-0.1118 0.33541,0.1118 0.33541,0.1118l0.12425,0.24849c0.10376,0.20862 0.26456,0.94519 0.3961,1.75376v-0.39953c0,-0.13807 0.11193,-0.25 0.25,-0.25c0.0998,0 0.18594,0.05848 0.22603,0.14304l0.12182,0.24364l-0.01197,0.00598l0.0185,0.01815l0.02303,-0.09213c0.02527,-0.11133 0.12483,-0.19444 0.24381,-0.19444c0.13807,0 0.25,0.11193 0.25,0.25v0v0.32838c0.05173,0.10141 0.10293,0.20461 0.15359,0.30935c0.02885,-0.01162 0.06037,-0.01802 0.09339,-0.01802c0.06903,0 0.13153,0.02798 0.17677,0.07322l0.07086,0.07086c-0.00043,-0.00605 -0.00066,-0.01216 -0.00066,-0.01833c0,-0.13807 0.11193,-0.25 0.25,-0.25c0.0998,0 0.18594,0.05848 0.22603,0.14304l0.10824,0.21649c0.04966,0.04966 0.10181,0.1018 0.15554,0.15615c0.82026,0.38107 1.89862,2.1929 1.7414,2.89785c-0.19787,0.88723 -1.05392,0.82084 -1.63171,0.41913c-0.03128,0.01408 -0.066,0.02192 -0.10253,0.02192c-0.10011,0 -0.18646,-0.05884 -0.22639,-0.14382l-0.09511,-0.19183c-0.09297,0.07331 -0.21679,0.10314 -0.37877,0.07433c-0.21173,-0.03765 -0.3786,-0.2422 -0.50768,-0.54397l-0.04397,0.1319c-0.03141,0.10215 -0.12653,0.17641 -0.23899,0.17641c-0.0998,0 -0.18594,-0.05849 -0.22603,-0.14305l-0.12182,-0.24364l0.01937,-0.00969l-0.03908,-0.04467c0,-0.12939 -0.01679,-0.26929 -0.04337,-0.41597l-0.1085,0.21701c-0.04008,0.08456 -0.12623,0.14304 -0.22603,0.14304c-0.0998,0 -0.18594,-0.05848 -0.22603,-0.14304l-0.12182,-0.24364l0.0701,-0.03505c-0.63602,-1.2507 -0.03593,-2.88632 -0.69132,-4.18922l-0.12424,-0.24848c0,0 -0.1118,-0.2236 0.1118,-0.33541zM273.72777,181.08201c-0.00246,0.14132 -0.01553,0.28213 -0.03647,0.42428h0.03302v0.2176c0.38065,0.36022 1.15273,0.38629 0.99761,-0.2844c-0.00671,-0.02901 -0.01406,-0.05765 -0.02203,-0.08593l-0.00561,0.01121c-0.04008,0.08456 -0.12623,0.14304 -0.22603,0.14304c-0.07405,0 -0.14059,-0.0322 -0.18636,-0.08336c-0.04577,0.05116 -0.11231,0.08336 -0.18636,0.08336c-0.09979,0 -0.18593,-0.05848 -0.22602,-0.14304l-0.12183,-0.24364c-0.00658,-0.01317 -0.01322,-0.02622 -0.01991,-0.03912z" stroke="none" stroke-width="0.5"/></g><path d="M269.95996,231.56044c2.92301,11.50873 2.90594,21.44456 -0.03816,22.19231c-2.94409,0.74775 -7.70033,-7.97574 -10.62334,-19.48447c-2.92302,-11.50873 -2.90594,-21.44456 0.03816,-22.19231c2.94409,-0.74775 7.70033,7.97575 10.62334,19.48447z" data-paper-data="{&quot;index&quot;:null}" fill="#000000" stroke="#000000" stroke-width="1.5"/><path d="M257.87715,149.42021c5.46066,0 9.8874,16.37628 9.8874,36.57745c0,20.20117 -4.42674,36.57745 -9.8874,36.57745c-5.46067,0 -9.88741,-16.37628 -9.88741,-36.57745c0,-20.20117 4.42674,-36.57745 9.88741,-36.57745z" fill="#fff700" stroke="#000000" stroke-width="2"/><path d="M281.47062,244.43362c-0.27614,0 -0.5,-0.22386 -0.5,-0.5c0,-0.27614 0.22386,-0.5 0.5,-0.5c0.27614,0 0.5,0.22386 0.5,0.5c0,0.27614 -0.22386,0.5 -0.5,0.5z" fill="#ffffff" stroke="none" stroke-width="0.5"/><path d="M271.93549,119.4655c0,18.57534 -6.62764,33.63364 -14.80324,33.63364c-8.1756,0 -14.80323,-15.05829 -14.80323,-33.63363c0,-18.57534 6.62763,-33.63363 14.80323,-33.63363c8.1756,0 14.80323,15.05828 14.80323,33.63363z" fill="#ffffff" stroke="#000000" stroke-width="2"/><path d="M242.70564,91.04995c0,-3.5442 6.88777,-6.41733 15.38427,-6.41733c8.4965,0 15.38427,2.87314 15.38427,6.41733c0,3.54419 -6.88778,6.41733 -15.38427,6.41733c-8.4965,0 -15.38427,-2.87313 -15.38427,-6.41733z" fill="#fff900" stroke="#000000" stroke-width="2"/><path d="M242.00771,89.01239c6.03061,0 10.91938,0.86123 10.91938,1.9236c0,1.06237 -4.88877,1.92359 -10.91938,1.92359c-6.03061,0 -10.91938,-0.86122 -10.91938,-1.92359c0,-1.06238 4.88877,-1.9236 10.91938,-1.9236z" fill="#cecece" stroke="#000000" stroke-width="1.5"/><path d="M254.48952,234.58286c-3.6792,11.28974 -9.00303,19.6789 -11.8911,18.73771c-2.88807,-0.94119 -2.24673,-10.85632 1.43246,-22.14606c3.6792,-11.28974 9.00303,-19.6789 11.8911,-18.73771c2.88807,0.94119 2.24673,10.85632 -1.43246,22.14606z" data-paper-data="{&quot;index&quot;:null}" fill="#000000" stroke="#000000" stroke-width="1.5"/><path d="M242.69222,181.95031c2.59488,0.13098 2.58916,9.06103 -0.01276,19.9458c-2.60193,10.88478 -6.81477,19.60247 -9.40965,19.47149c-2.59488,-0.13098 -2.58916,-9.06103 0.01276,-19.94581c2.60192,-10.88479 6.81477,-19.60246 9.40964,-19.47148z" data-paper-data="{&quot;index&quot;:null}" fill="#ffffff" stroke="#000000" stroke-width="1.5"/><g data-paper-data="{&quot;index&quot;:null}" fill="#ffffff"><path d="M254.79432,171.18049c0.94624,1.00606 -1.4979,5.0753 -5.45913,9.08891c-3.96123,4.01361 -7.93952,6.45171 -8.88576,5.44565c-0.94623,-1.00606 1.49791,-5.0753 5.45914,-9.08891c3.96123,-4.01361 7.93952,-6.45171 8.88576,-5.44565z" stroke="#000000" stroke-width="1.5"/><path d="M243.2181,182.06427c0.49914,-0.59755 1.06147,-1.12213 1.75028,-1.46218c0,0 0.55586,-0.25826 0.79851,0.18288c0.24265,0.44114 -0.31322,0.69942 -0.31322,0.69942c-0.39841,0.16738 -0.76141,0.46329 -1.09832,0.8268c0.00404,0.00502 0.00796,0.01011 0.01177,0.0153c0.07337,-0.05429 0.14981,-0.11054 0.22954,-0.16903l-0.09396,0.55334l0.28348,0.11374l-0.39132,0.58652l-0.01038,-0.00417l-0.00426,0.02509c-0.26459,0.33061 -0.48351,0.6388 -0.68908,0.92276c-0.12579,0.21936 -0.27991,0.45489 -0.43415,0.75348l-0.25516,0.5346c-0.07031,0.15169 -0.21921,0.28217 -0.4141,0.34255c-0.10534,0.03264 -0.21116,0.04079 -0.30888,0.02791l0.02924,0.04857l-0.60935,0.30299c-0.0387,0.02003 -0.0801,0.0371 -0.12379,0.05063c-0.32485,0.10064 -0.65445,-0.03161 -0.73617,-0.29538c-0.0113,-0.03648 -0.01727,-0.07357 -0.0183,-0.11065c-0.02012,-0.03118 -0.03616,-0.06514 -0.04746,-0.10162c-0.03385,-0.10925 -0.01987,-0.22395 0.03122,-0.32797l0.20377,-0.42691c-0.12962,-0.05412 -0.2294,-0.15188 -0.2695,-0.28132c-0.04086,-0.13189 -0.01202,-0.27168 0.06765,-0.3911l0.62256,-0.93315l0.08378,0.03361c0.07576,-0.10915 0.15015,-0.21156 0.22314,-0.30752l-0.01615,-0.00649l0.58696,-0.87978l0.17995,0.0722c0.27625,-0.23133 0.52146,-0.3549 0.7317,-0.39516z" stroke="none" stroke-width="0.5"/></g><path d="M243.7644,181.91724c0,0 0.1118,-0.22361 0.33541,-0.1118c0.22361,0.11181 0.1118,0.33541 0.1118,0.33541l-0.12424,0.24848c-0.6554,1.3029 -0.0553,2.93852 -0.69133,4.18923l0.07011,0.03505l-0.12182,0.24365c-0.04008,0.08456 -0.12623,0.14304 -0.22603,0.14304c-0.0998,0 -0.18595,-0.05848 -0.22603,-0.14304l-0.1085,-0.21701c-0.02657,0.14669 -0.04337,0.28658 -0.04337,0.41597l-0.03908,0.04468l0.01938,0.00969l-0.12182,0.24364c-0.04008,0.08456 -0.12623,0.14304 -0.22603,0.14304c-0.11246,0 -0.20759,-0.07425 -0.239,-0.17641l-0.04396,-0.1319c-0.12908,0.30177 -0.29596,0.50631 -0.50769,0.54397c-0.16198,0.02881 -0.28579,-0.00101 -0.37876,-0.07433l-0.09512,0.19183c-0.03992,0.08498 -0.12628,0.14382 -0.22639,0.14382c-0.03654,0 -0.07124,-0.00784 -0.10253,-0.02192c-0.57779,0.40171 -1.43384,0.46809 -1.63171,-0.41913c-0.15722,-0.70494 0.92114,-2.51678 1.7414,-2.89785c0.05373,-0.05435 0.10587,-0.10649 0.15553,-0.15615l0.10825,-0.21648c0.04008,-0.08456 0.12623,-0.14304 0.22603,-0.14304c0.13807,0 0.25,0.11193 0.25,0.25c0,0.00617 -0.00023,0.01228 -0.00067,0.01833l0.07086,-0.07086c0.04524,-0.04524 0.10775,-0.07322 0.17678,-0.07322c0.03302,0 0.06454,0.00639 0.09339,0.01802c0.05065,-0.10473 0.10187,-0.20794 0.15359,-0.30934v-0.32839v0c0,-0.13807 0.11193,-0.25 0.25,-0.25c0.11897,0 0.21854,0.08311 0.2438,0.19444l0.02304,0.09213l0.01849,-0.01815l-0.01196,-0.00598l0.12182,-0.24365c0.04008,-0.08456 0.12623,-0.14304 0.22603,-0.14304c0.13807,0 0.25,0.11193 0.25,0.25v0.39952c0.13154,-0.80857 0.29235,-1.54514 0.3961,-1.75376l0.12424,-0.24849zM240.66496,187.24726c-0.02094,-0.14214 -0.03401,-0.28296 -0.03647,-0.42428c-0.00669,0.01291 -0.01333,0.02595 -0.01991,0.03912l-0.12183,0.24364c-0.04008,0.08456 -0.12622,0.14304 -0.22602,0.14304c-0.07406,0 -0.1406,-0.0322 -0.18637,-0.08336c-0.04577,0.05116 -0.11231,0.08336 -0.18636,0.08336c-0.0998,0 -0.18595,-0.05848 -0.22603,-0.14304l-0.00561,-0.0112c-0.00796,0.02828 -0.01532,0.05692 -0.02203,0.08593c-0.15513,0.67069 0.61696,0.64462 0.99761,0.2844v-0.2176h0.03301z" data-paper-data="{&quot;index&quot;:null}" fill="#ffffff" stroke="none" stroke-width="0.5"/><path d="M246.36067,105.40617c2.4831,0 4.49606,1.36593 4.49606,3.0509c0,1.68497 -2.01295,3.05091 -4.49606,3.05091c-2.4831,0 -4.49606,-1.36593 -4.49606,-3.0509c0,-1.68497 2.01295,-3.0509 4.49606,-3.0509z" fill="#ffffff" stroke="#000000" stroke-width="1"/><path d="M245.16648,106.55098c1.06419,0 1.92688,0.8627 1.92688,1.92688c0,1.06419 -0.8627,1.92688 -1.92688,1.92688c-1.06419,0 -1.92688,-0.86269 -1.92688,-1.92688c0,-1.06419 0.86269,-1.92688 1.92688,-1.92688z" fill="#000000" stroke="#000000" stroke-width="1"/></g></g></g></svg>