<svg version="1.1" xmlns="http://www.w3.org/2000/svg" xmlns:xlink="http://www.w3.org/1999/xlink" width="82.69807" height="208.10435" viewBox="0,0,82.69807,208.10435"><g transform="translate(-194.39653,-75.82291)"><g data-paper-data="{&quot;isPaintingLayer&quot;:true}" fill-rule="nonzero" stroke-linecap="butt" stroke-linejoin="miter" stroke-miterlimit="10" stroke-dasharray="" stroke-dashoffset="0" style="mix-blend-mode: normal"><path d="M207.90889,183.6793c0,-0.08715 0.07242,-0.16585 0.18881,-0.22186c-0.22157,-0.04662 -0.37714,-0.1562 -0.37714,-0.28393c0,-0.17005 0.27569,-0.3079 0.61577,-0.3079c0.34008,0 0.61577,0.13785 0.61577,0.3079c0,0.08715 -0.07241,0.16585 -0.1888,0.22187c0.22157,0.04662 0.37715,0.15619 0.37715,0.28393c0,0.17005 -0.2757,0.30791 -0.61577,0.30791c-0.34008,0 -0.61578,-0.13786 -0.61578,-0.30791z" data-paper-data="{&quot;index&quot;:null}" fill="#ffffff" stroke="none" stroke-width="0.5"/><path d="M241.71773,240.17726c3.03757,0 5.5,9.62588 5.5,21.5c0,11.87412 -2.46243,21.5 -5.5,21.5c-3.03757,0 -5.5,-9.62588 -5.5,-21.5c0,-11.87412 2.46243,-21.5 5.5,-21.5z" fill="#000000" stroke="#000000" stroke-width="1.5"/><path d="M227.21773,239.67726c3.03757,0 5.5,9.62588 5.5,21.5c0,11.87412 -2.46243,21.5 -5.5,21.5c-3.03757,0 -5.5,-9.62588 -5.5,-21.5c0,-11.87412 2.46243,-21.5 5.5,-21.5z" fill="#000000" stroke="#000000" stroke-width="1.5"/><path d="M259.57806,198.4445c0,26.5362 -11.09205,48.04805 -24.77478,48.04805c-13.68273,0 -24.77477,-21.51184 -24.77477,-48.04805c0,-26.5362 11.09204,-48.04804 24.77477,-48.04804c13.68273,0 24.77478,21.51184 24.77478,48.04805z" fill="#fff700" stroke="#000000" stroke-width="2"/><path d="M199.51804,119.46556c0,-18.57535 16.13388,-33.63363 36.03603,-33.63363c19.90215,0 36.03604,15.05829 36.03604,33.63363c0,18.57534 -16.13389,33.63363 -36.03604,33.63363c-19.90216,0 -36.03604,-15.0583 -36.03604,-33.63364z" fill="#ffffff" stroke="#000000" stroke-width="2"/><path d="M236.30482,102.34844c-21.97529,0 -39.78979,-5.71409 -39.78979,-12.76277c0,-7.04868 17.8145,-12.76276 39.78979,-12.76276c21.9753,0 39.78979,5.71408 39.78979,12.76276c0,7.04869 -17.81449,12.76277 -39.78979,12.76277z" fill="#fff900" stroke="#000000" stroke-width="2"/><path d="M231.9485,243.93367c0,-0.27614 0.22386,-0.5 0.5,-0.5c0.27614,0 0.5,0.22386 0.5,0.5c0,0.27614 -0.22386,0.5 -0.5,0.5c-0.27614,0 -0.5,-0.22386 -0.5,-0.5z" fill="#ffffff" stroke="none" stroke-width="0.5"/><g fill="#ffffff"><path d="M250.71411,185.25338c-0.60612,-0.76423 2.93278,-2.71243 7.90435,-4.35144c4.97157,-1.63901 9.49319,-2.34815 10.09931,-1.58392c0.60612,0.76423 -2.93277,2.71243 -7.90435,4.35144c-4.97157,1.63901 -9.4932,2.34815 -10.09932,1.58392z" data-paper-data="{&quot;index&quot;:null}" stroke="#000000" stroke-width="1.5"/><path d="M261.85919,167.6259c0,-7.13559 2.55015,-12.92014 5.69592,-12.92014c3.14577,0 5.69592,5.78455 5.69592,12.92014c0,7.13559 -2.55016,12.92013 -5.69592,12.92013c-3.14577,0 -5.69592,-5.78454 -5.69592,-12.92013z" data-paper-data="{&quot;index&quot;:null}" stroke="#000000" stroke-width="1.5"/><path d="M264.99271,180.96095c-0.65362,0.26052 -1.346,0.46661 -2.10459,0.54111c0,0 -0.60739,0.05061 -0.70862,-0.2531c-0.10123,-0.30371 0.50617,-0.35434 0.50617,-0.35434c0.4301,-0.02584 0.8644,-0.13376 1.2938,-0.28618c-0.00237,-0.00369 -0.0046,-0.00739 -0.00671,-0.01114c-0.08615,0.01856 -0.17581,0.03772 -0.26928,0.0576l0.25351,-0.30836l-0.23712,-0.11857l0.54736,-0.27369l0.00868,0.00434l0.0115,-0.01399c0.35058,-0.14625 0.65089,-0.28764 0.93129,-0.41721c0.18507,-0.10611 0.40199,-0.21656 0.63768,-0.36409l0.40194,-0.26797c0.11205,-0.07641 0.29289,-0.12603 0.49692,-0.12603c0.11028,0 0.21378,0.0145 0.30331,0.03988l-0.01356,-0.0339l0.67172,-0.06718c0.0429,-0.00474 0.08749,-0.00723 0.13323,-0.00723c0.34008,0 0.61578,0.13786 0.61578,0.30791c0,0.02352 -0.00527,0.04641 -0.01526,0.06842c0.00999,0.02201 0.01526,0.0449 0.01526,0.06842c0,0.07044 -0.0473,0.13536 -0.12688,0.18723l-0.32098,0.21399c0.1078,0.05545 0.17418,0.13114 0.17418,0.21459c0,0.08503 -0.06892,0.16201 -0.18036,0.21773l-0.87083,0.43544l-0.07008,-0.03504c-0.10466,0.0504 -0.20603,0.09708 -0.30415,0.14023l0.01351,0.00676l-0.82103,0.41054l-0.15052,-0.07527c-0.33233,0.08574 -0.60313,0.11374 -0.81587,0.09911z" data-paper-data="{&quot;index&quot;:null}" stroke="none" stroke-width="0.5"/><path d="M262.48868,173.83739c0,0.08715 -0.07242,0.16584 -0.18881,0.22186c0.22157,0.04661 0.37714,0.15619 0.37714,0.28393c0,0.17005 -0.27569,0.3079 -0.61577,0.3079c-0.34008,0 -0.61577,-0.13785 -0.61577,-0.3079c0,-0.08716 0.07241,-0.16585 0.1888,-0.22187c-0.22157,-0.04662 -0.37715,-0.15619 -0.37715,-0.28393c0,-0.17005 0.2757,-0.30791 0.61577,-0.30791c0.34008,0 0.61578,0.13786 0.61578,0.30791z" data-paper-data="{&quot;index&quot;:null}" stroke="none" stroke-width="0.5"/><path d="M262.89385,175.15311l-0.06756,0.13513l0.04598,0.00575c-0.03439,0.01026 -0.13026,0.04326 -0.1569,0.09901c-0.02175,-0.0055 -0.0421,-0.01163 -0.06082,-0.01838c0.01321,-0.09017 0.10407,-0.16956 0.2393,-0.22151z" data-paper-data="{&quot;index&quot;:null}" stroke="none" stroke-width="0.5"/></g><g data-paper-data="{&quot;index&quot;:null}" fill="#ffffff"><path d="M217.68346,185.75338c-0.60612,0.76423 -5.12775,0.05509 -10.09932,-1.58392c-4.97158,-1.63901 -8.51047,-3.58721 -7.90435,-4.35144c0.60612,-0.76423 5.12774,-0.05509 10.09931,1.58392c4.97157,1.63901 8.51047,3.58721 7.90435,4.35144z" data-paper-data="{&quot;index&quot;:null}" stroke="#000000" stroke-width="1.5"/><path d="M200.84245,181.04603c-3.14576,0 -5.69592,-5.78454 -5.69592,-12.92013c0,-7.13559 2.55015,-12.92014 5.69592,-12.92014c3.14577,0 5.69592,5.78455 5.69592,12.92014c0,7.13559 -2.55015,12.92013 -5.69592,12.92013z" data-paper-data="{&quot;index&quot;:null}" stroke="#000000" stroke-width="1.5"/><path d="M203.40485,181.46096c-0.21274,0.01463 -0.48354,-0.01337 -0.81587,-0.09911l-0.15052,0.07527l-0.82103,-0.41054l0.01351,-0.00676c-0.09812,-0.04315 -0.19949,-0.08983 -0.30415,-0.14023l-0.07008,0.03504l-0.87083,-0.43544c-0.11144,-0.05572 -0.18036,-0.1327 -0.18036,-0.21773c0,-0.08345 0.06638,-0.15914 0.17418,-0.21459l-0.32098,-0.21399c-0.07958,-0.05187 -0.12688,-0.11679 -0.12688,-0.18723c0,-0.02352 0.00527,-0.04641 0.01526,-0.06842c-0.00999,-0.02201 -0.01526,-0.0449 -0.01526,-0.06842c0,-0.17005 0.2757,-0.30791 0.61578,-0.30791c0.04574,0 0.09033,0.00249 0.13323,0.00723l0.67172,0.06718l-0.01356,0.0339c0.08953,-0.02538 0.19303,-0.03988 0.30331,-0.03988c0.20403,0 0.38487,0.04962 0.49692,0.12603l0.40194,0.26797c0.23569,0.14753 0.45261,0.25798 0.63768,0.36409c0.2804,0.12957 0.58071,0.27096 0.93129,0.41721l0.0115,0.01399l0.00868,-0.00434l0.54736,0.27369l-0.23712,0.11857l0.25351,0.30836c-0.09347,-0.01988 -0.18313,-0.03904 -0.26928,-0.0576c-0.00211,0.00375 -0.00434,0.00745 -0.00671,0.01114c0.4294,0.15242 0.8637,0.26034 1.2938,0.28618c0,0 0.6074,0.05063 0.50617,0.35434c-0.10123,0.30371 -0.70862,0.2531 -0.70862,0.2531c-0.75859,-0.0745 -1.45097,-0.28059 -2.10459,-0.54111z" data-paper-data="{&quot;index&quot;:null}" stroke="none" stroke-width="0.5"/><path d="M205.90889,174.33738c0,-0.17005 0.2757,-0.30791 0.61578,-0.30791c0.34007,0 0.61577,0.13786 0.61577,0.30791c0,0.12774 -0.15558,0.23731 -0.37715,0.28393c0.11639,0.05602 0.1888,0.13471 0.1888,0.22187c0,0.17005 -0.27569,0.3079 -0.61577,0.3079c-0.34008,0 -0.61577,-0.13785 -0.61577,-0.3079c0,-0.12774 0.15557,-0.23732 0.37714,-0.28393c-0.11639,-0.05602 -0.18881,-0.13471 -0.18881,-0.22186z" data-paper-data="{&quot;index&quot;:null}" stroke="none" stroke-width="0.5"/><path d="M205.74301,175.87462c-0.01872,0.00675 -0.03907,0.01288 -0.06082,0.01838c-0.02664,-0.05575 -0.12251,-0.08875 -0.1569,-0.09901l0.04598,-0.00575l-0.06756,-0.13513c0.13523,0.05195 0.22609,0.13134 0.2393,0.22151z" data-paper-data="{&quot;index&quot;:null}" stroke="none" stroke-width="0.5"/></g></g></g></svg>