<svg version="1.1" xmlns="http://www.w3.org/2000/svg" xmlns:xlink="http://www.w3.org/1999/xlink" width="81.57958" height="208.10435" viewBox="0,0,81.57958,208.10435"><g transform="translate(-195.51502,-75.82291)"><g data-paper-data="{&quot;isPaintingLayer&quot;:true}" fill-rule="nonzero" stroke-linecap="butt" stroke-linejoin="miter" stroke-miterlimit="10" stroke-dasharray="" stroke-dashoffset="0" style="mix-blend-mode: normal"><g data-paper-data="{&quot;index&quot;:null}" fill="#ffffff"><g stroke="#000000" stroke-width="1.5"><path d="M259.81531,175.02727c4.97157,2.66155 8.51047,5.82521 7.90435,7.06623c-0.60612,1.24102 -5.12774,0.08945 -10.09931,-2.5721c-4.97158,-2.66155 -8.51047,-5.82521 -7.90435,-7.06623c0.60612,-1.24102 5.12774,-0.08945 10.09931,2.5721z"/><path d="M266.55699,180.09937c3.14577,0 5.69592,9.39342 5.69592,20.98078c0,11.58737 -2.55015,20.98079 -5.69592,20.98079c-3.14577,0 -5.69592,-9.39342 -5.69592,-20.98079c0,-11.58737 2.55015,-20.98078 5.69592,-20.98078z"/></g><path d="M264.81047,179.58647l0.15052,-0.12222l0.82103,0.66667l-0.01351,0.01098c0.09812,0.07005 0.1995,0.14587 0.30415,0.22771l0.07008,-0.0569l0.87083,0.70711c0.11143,0.09048 0.18035,0.21549 0.18035,0.35356c0,0.1355 -0.06638,0.25842 -0.17418,0.34847l0.32097,0.34749c0.07959,0.08425 0.12689,0.18966 0.12689,0.30404c0,0.03819 -0.00527,0.07538 -0.01526,0.11111c0.00999,0.03573 0.01526,0.07292 0.01526,0.11111c0,0.27614 -0.27569,0.5 -0.61577,0.5c-0.04575,0 -0.09034,-0.00405 -0.13324,-0.01173l-0.67172,-0.10909l0.01356,-0.05505c-0.08954,0.04122 -0.19304,0.06476 -0.30331,0.06476c-0.20403,0 -0.38486,-0.08057 -0.49692,-0.20466l-0.40193,-0.43515c-0.23569,-0.23957 -0.45261,-0.41894 -0.63768,-0.59125c-0.2804,-0.21042 -0.58071,-0.44001 -0.93129,-0.67751l-0.0115,-0.02271l-0.00868,0.00705l-0.54736,-0.44444l0.23712,-0.19254l-0.25351,-0.50074c0.09348,0.03228 0.18313,0.06338 0.26928,0.09353c0.0021,-0.00608 0.00433,-0.01211 0.00671,-0.0181c-0.4294,-0.24752 -0.8637,-0.42276 -1.2938,-0.46473c0,0 -0.6074,-0.0822 -0.50617,-0.5754c0.10124,-0.49319 0.70863,-0.411 0.70863,-0.411c0.75859,0.12097 1.45097,0.45565 2.10458,0.87871c0.21274,-0.02376 0.48354,0.02171 0.81587,0.16093z" stroke="none" stroke-width="0.5"/></g><g fill="#ffffff"><path d="M219.68346,172.45517c0.60612,1.24102 -2.93278,4.40467 -7.90435,7.06623c-4.97157,2.66155 -9.49319,3.81312 -10.09931,2.5721c-0.60612,-1.24102 2.93277,-4.40467 7.90435,-7.06623c4.97157,-2.66155 9.4932,-3.81312 10.09932,-2.5721z" data-paper-data="{&quot;index&quot;:null}" stroke="#000000" stroke-width="1.5"/><path d="M208.53838,201.08012c0,11.58737 -2.55015,20.98079 -5.69592,20.98079c-3.14577,0 -5.69592,-9.39342 -5.69592,-20.98079c0,-11.58737 2.55016,-20.98078 5.69592,-20.98078c3.14577,0 5.69592,9.39342 5.69592,20.98078z" data-paper-data="{&quot;index&quot;:null}" stroke="#000000" stroke-width="1.5"/><path d="M205.40486,179.42556c0.65362,-0.42307 1.346,-0.75774 2.10459,-0.87871c0,0 0.60739,-0.08219 0.70862,0.411c0.10123,0.49319 -0.50617,0.5754 -0.50617,0.5754c-0.4301,0.04197 -0.8644,0.21721 -1.2938,0.46473c0.00237,0.00599 0.0046,0.01202 0.00671,0.0181c0.08615,-0.03015 0.17581,-0.06125 0.26928,-0.09353l-0.25351,0.50074l0.23712,0.19254l-0.54736,0.44444l-0.00868,-0.00705l-0.0115,0.02271c-0.35058,0.2375 -0.65089,0.4671 -0.93129,0.67751c-0.18507,0.17231 -0.40199,0.35168 -0.63768,0.59125l-0.40194,0.43515c-0.11205,0.12409 -0.29289,0.20466 -0.49692,0.20466c-0.11028,0 -0.21378,-0.02354 -0.30331,-0.06476l0.01356,0.05505l-0.67172,0.10909c-0.0429,0.00769 -0.08749,0.01173 -0.13323,0.01173c-0.34008,0 -0.61578,-0.22386 -0.61578,-0.5c0,-0.03819 0.00527,-0.07538 0.01526,-0.11111c-0.00999,-0.03573 -0.01526,-0.07292 -0.01526,-0.11111c0,-0.11438 0.0473,-0.2198 0.12688,-0.30404l0.32098,-0.34749c-0.1078,-0.09005 -0.17418,-0.21296 -0.17418,-0.34847c0,-0.13807 0.06892,-0.26307 0.18036,-0.35356l0.87083,-0.70711l0.07008,0.0569c0.10466,-0.08184 0.20603,-0.15765 0.30415,-0.22771l-0.01351,-0.01098l0.82103,-0.66667l0.15052,0.12222c0.33233,-0.13922 0.60313,-0.18469 0.81587,-0.16093z" data-paper-data="{&quot;index&quot;:null}" stroke="none" stroke-width="0.5"/><path d="M207.90889,190.99341c0,-0.14153 0.07242,-0.26932 0.18881,-0.36028c-0.22157,-0.0757 -0.37714,-0.25364 -0.37714,-0.46107c0,-0.27614 0.27569,-0.5 0.61577,-0.5c0.34008,0 0.61577,0.22386 0.61577,0.5c0,0.14153 -0.07241,0.26932 -0.1888,0.36028c0.22157,0.0757 0.37715,0.25364 0.37715,0.46107c0,0.27614 -0.2757,0.5 -0.61577,0.5c-0.34008,0 -0.61578,-0.22386 -0.61578,-0.5z" data-paper-data="{&quot;index&quot;:null}" stroke="none" stroke-width="0.5"/><path d="M207.50372,188.8568l0.06756,-0.21944l-0.04598,-0.00933c0.03439,-0.01666 0.13026,-0.07026 0.1569,-0.16078c0.02175,0.00895 0.0421,0.01888 0.06082,0.02985c-0.01321,0.14642 -0.10407,0.27534 -0.2393,0.3597z" data-paper-data="{&quot;index&quot;:null}" stroke="none" stroke-width="0.5"/></g><g><g fill="#000000" stroke="#000000" stroke-width="1.5"><path d="M241.71773,240.17726c3.03757,0 5.5,9.62588 5.5,21.5c0,11.87412 -2.46243,21.5 -5.5,21.5c-3.03757,0 -5.5,-9.62588 -5.5,-21.5c0,-11.87412 2.46243,-21.5 5.5,-21.5z"/><path d="M227.21773,239.67726c3.03757,0 5.5,9.62588 5.5,21.5c0,11.87412 -2.46243,21.5 -5.5,21.5c-3.03757,0 -5.5,-9.62588 -5.5,-21.5c0,-11.87412 2.46243,-21.5 5.5,-21.5z"/></g><path d="M259.57808,198.4445c0,26.5362 -11.09205,48.04805 -24.77478,48.04805c-13.68273,0 -24.77477,-21.51184 -24.77477,-48.04805c0,-26.5362 11.09204,-48.04804 24.77477,-48.04804c13.68273,0 24.77478,21.51184 24.77478,48.04805z" fill="#fff700" stroke="#000000" stroke-width="2"/><path d="M199.51804,119.46556c0,-18.57535 16.13388,-33.63363 36.03603,-33.63363c19.90215,0 36.03604,15.05829 36.03604,33.63363c0,18.57534 -16.13389,33.63363 -36.03604,33.63363c-19.90216,0 -36.03604,-15.0583 -36.03604,-33.63364z" fill="#ffffff" stroke="#000000" stroke-width="2"/><path d="M236.30482,102.34844c-21.97529,0 -39.78979,-5.71409 -39.78979,-12.76277c0,-7.04868 17.8145,-12.76276 39.78979,-12.76276c21.9753,0 39.78979,5.71408 39.78979,12.76276c0,7.04869 -17.81449,12.76277 -39.78979,12.76277z" fill="#fff900" stroke="#000000" stroke-width="2"/><path d="M264.08259,94.84093c0,1.814 -12.1004,3.28453 -27.02702,3.28453c-14.92661,0 -27.02703,-1.47053 -27.02703,-3.28453c0,-1.814 12.10041,-3.28454 27.02703,-3.28454c14.92661,0 27.02702,1.47054 27.02702,3.28454z" fill="#cecece" stroke="#000000" stroke-width="1.5"/><path d="M232.8512,112.70384c0,3.46739 -4.14234,6.27826 -9.25216,6.27826c-5.10983,0 -9.25216,-2.81087 -9.25216,-6.27826c0,-3.46739 4.14234,-6.27826 9.25216,-6.27826c5.10983,0 9.25216,2.81087 9.25216,6.27826z" fill="#ffffff" stroke="#000000" stroke-width="1"/><path d="M227.56425,112.62341c0,2.18993 -1.77528,3.96521 -3.96521,3.96521c-2.18992,0 -3.96521,-1.77528 -3.96521,-3.96521c0,-2.18993 1.77529,-3.96521 3.96521,-3.96521c2.18992,0 3.96521,1.77528 3.96521,3.96521z" fill="#000000" stroke="#000000" stroke-width="1"/><path d="M257.52142,113.5828c0,3.46738 -4.14234,6.27825 -9.25216,6.27825c-5.10983,0 -9.25216,-2.81087 -9.25216,-6.27825c0,-3.46738 4.14234,-6.27826 9.25216,-6.27826c5.10982,0 9.25216,2.81087 9.25216,6.27826z" fill="#ffffff" stroke="#000000" stroke-width="1"/><path d="M252.23447,113.25237c0,2.18993 -1.77528,3.96522 -3.96521,3.96522c-2.18993,0 -3.96522,-1.77528 -3.96522,-3.96522c0,-2.18993 1.77528,-3.96521 3.96522,-3.96521c2.18993,0 3.96521,1.77528 3.96521,3.96521z" fill="#000000" stroke="#000000" stroke-width="1"/><path d="M231.9485,243.93367c0,-0.27614 0.22386,-0.5 0.5,-0.5c0.27614,0 0.5,0.22386 0.5,0.5c0,0.27614 -0.22386,0.5 -0.5,0.5c-0.27614,0 -0.5,-0.22386 -0.5,-0.5z" fill="#ffffff" stroke="none" stroke-width="0.5"/><path d="M236.05196,142.29396c-6.30525,0 -11.41667,-0.09657 -11.41667,-0.21569c0,-0.11912 5.11142,-0.21569 11.41667,-0.21569c6.30525,0 11.41666,0.09657 11.41666,0.21569c0,0.11913 -5.11141,0.21569 -11.41666,0.21569z" fill="none" stroke="#000000" stroke-width="1.5"/></g></g></g></svg>