<svg version="1.1" xmlns="http://www.w3.org/2000/svg" xmlns:xlink="http://www.w3.org/1999/xlink" width="271.27027" height="297.33991" viewBox="0,0,271.27027,297.33991"><g transform="translate(-104.36488,11.48554)"><g data-paper-data="{&quot;isPaintingLayer&quot;:true}" fill-rule="nonzero" stroke-linejoin="miter" stroke-miterlimit="10" stroke-dasharray="" stroke-dashoffset="0" style="mix-blend-mode: normal"><g stroke-linecap="butt"><g fill="#000000" stroke="#000000" stroke-width="1.5"><path d="M249.00002,239.5c3.03757,0 5.5,9.62588 5.5,21.5c0,11.87412 -2.46243,21.5 -5.5,21.5c-3.03757,0 -5.5,-9.62588 -5.5,-21.5c0,-11.87412 2.46243,-21.5 5.5,-21.5z"/><path d="M234.50002,239c3.03757,0 5.5,9.62588 5.5,21.5c0,11.87412 -2.46243,21.5 -5.5,21.5c-3.03757,0 -5.5,-9.62588 -5.5,-21.5c0,-11.87412 2.46243,-21.5 5.5,-21.5z"/></g><g><path d="M266.86037,197.76727c0,26.5362 -11.09205,48.04805 -24.77478,48.04805c-13.68273,0 -24.77477,-21.51184 -24.77477,-48.04805c0,-26.5362 11.09204,-48.04804 24.77477,-48.04804c13.68273,0 24.77478,21.51184 24.77478,48.04805z" fill="#ffffff" stroke="#000000" stroke-width="2"/><path d="M206.80033,118.7883c0,-18.57535 16.13388,-33.63363 36.03603,-33.63363c19.90215,0 36.03604,15.05829 36.03604,33.63363c0,18.57534 -16.13389,33.63363 -36.03604,33.63363c-19.90216,0 -36.03604,-15.0583 -36.03604,-33.63364z" fill="#ffffff" stroke="#000000" stroke-width="2"/><path d="M243.58711,101.67118c-21.97529,0 -39.78979,-5.71409 -39.78979,-12.76277c0,-7.04868 17.8145,-12.76276 39.78979,-12.76276c21.9753,0 39.78979,5.71408 39.78979,12.76276c0,7.04869 -17.81449,12.76277 -39.78979,12.76277z" fill="#bdff00" stroke="#000000" stroke-width="2"/><path d="M271.36488,94.16367c0,1.814 -12.1004,3.28453 -27.02702,3.28453c-14.92661,0 -27.02703,-1.47053 -27.02703,-3.28453c0,-1.814 12.10041,-3.28454 27.02703,-3.28454c14.92661,0 27.02702,1.47054 27.02702,3.28454z" fill="#989898" stroke="#000000" stroke-width="1.5"/><path d="M192.26501,198.93849c2.27062,0.65375 2.22065,8.8926 -0.11162,18.40198c-2.33227,9.50938 -6.06365,16.68828 -8.33428,16.03453c-2.27062,-0.65375 -2.22065,-8.89261 0.11161,-18.40198c2.33227,-9.50938 6.06366,-16.68828 8.33428,-16.03453z" fill="#ffffff" stroke="#000000" stroke-width="1.5"/><path d="M310.59484,141.36616c2.64895,1.18615 1.49956,9.51024 -2.56724,18.59237c-4.0668,9.08213 -9.51101,15.48308 -12.15996,14.29693c-2.64895,-1.18615 -1.49955,-9.51024 2.56725,-18.59236c4.06681,-9.08212 9.51101,-15.48307 12.15996,-14.29692z" fill="#ffffff" stroke="#000000" stroke-width="1.5"/><path d="M240.13349,112.02658c0,3.46739 -4.14234,6.27826 -9.25216,6.27826c-5.10983,0 -9.25216,-2.81087 -9.25216,-6.27826c0,-3.46739 4.14234,-6.27826 9.25216,-6.27826c5.10983,0 9.25216,2.81087 9.25216,6.27826z" fill="#ffffff" stroke="#000000" stroke-width="1"/><path d="M234.84654,111.94615c0,2.18993 -1.77528,3.96521 -3.96521,3.96521c-2.18992,0 -3.96521,-1.77528 -3.96521,-3.96521c0,-2.18993 1.77529,-3.96521 3.96521,-3.96521c2.18992,0 3.96521,1.77528 3.96521,3.96521z" fill="#000000" stroke="#000000" stroke-width="1"/><path d="M264.8037,112.90554c0,3.46738 -4.14234,6.27825 -9.25216,6.27825c-5.10983,0 -9.25216,-2.81087 -9.25216,-6.27825c0,-3.46738 4.14234,-6.27826 9.25216,-6.27826c5.10982,0 9.25216,2.81087 9.25216,6.27826z" fill="#ffffff" stroke="#000000" stroke-width="1"/><path d="M259.51676,112.5751c0,2.18993 -1.77528,3.96522 -3.96521,3.96522c-2.18993,0 -3.96522,-1.77528 -3.96522,-3.96522c0,-2.18993 1.77528,-3.96521 3.96522,-3.96521c2.18993,0 3.96521,1.77528 3.96521,3.96521z" fill="#000000" stroke="#000000" stroke-width="1"/><path d="M299.08574,171.27677c0.55945,2.29568 -6.61775,6.34153 -16.03072,9.03668c-9.41297,2.69514 -17.49721,3.01896 -18.05666,0.72328c-0.55945,-2.29568 6.61775,-6.34154 16.03071,-9.03668c9.41297,-2.69514 17.49721,-3.01896 18.05667,-0.72328z" fill="#ffffff" stroke="#000000" stroke-width="1.5"/><path d="M220.16777,177.7772c1.35173,1.93803 -3.87678,8.30543 -11.67819,14.22199c-7.80141,5.91656 -15.2215,9.14181 -16.57323,7.20378c-1.35173,-1.93803 3.87678,-8.30544 11.67819,-14.222c7.80141,-5.91656 15.2215,-9.1418 16.57323,-7.20377z" fill="#ffffff" stroke="#000000" stroke-width="1.5"/><path d="M294.96969,168.49531l0.39174,-0.26496c0.47494,-0.13635 0.88851,-0.36369 1.29556,-0.56641c0.03837,-0.07524 0.07675,-0.15049 0.11512,-0.22574c0,0 0.72847,-1.31124 2.03971,-0.58277c0.42588,0.2366 0.63658,0.53467 0.72697,0.82933c2.43561,1.33001 0.72685,3.52501 -1.31469,4.31858l0.10681,0.35606l-0.75254,0.22576c-0.07311,0.02379 -0.15115,0.03664 -0.2322,0.03664c-0.35489,0 -0.65222,-0.2465 -0.7301,-0.57762c-0.01191,-0.01429 -0.0233,-0.02902 -0.03414,-0.04417h-0.66525c-0.82842,0 -1.5,-0.67157 -1.5,-1.5c0,-0.41816 0.17111,-0.79637 0.44714,-1.0684c-0.34463,-0.48579 0.10586,-0.93629 0.10586,-0.93629z" fill="#ffffff" stroke="none" stroke-width="0.5"/><path d="M193.80771,197.3718c0.5,0 0.5,0.5 0.5,0.5l-0.08398,0.50812c-0.48873,0.73294 -1.91733,3.49974 -3.21417,2.88036c-0.9779,-0.46705 -0.24771,-1.8996 0.55647,-2.40582c0.05251,-0.15004 0.12285,-0.29165 0.21473,-0.42057l0.29892,-0.44837c0.08902,-0.13785 0.24402,-0.22911 0.42032,-0.22911c0.27614,0 0.5,0.22386 0.5,0.5c0,0.10506 -0.0324,0.20256 -0.08776,0.28304l-0.02624,0.03935c0.0065,0.01305 0.01217,0.02612 0.01706,0.03918c0.16408,-0.27073 0.32195,-0.54273 0.4886,-0.79276l-0.08397,0.04658c0,0 0,-0.5 0.5,-0.5z" fill="#ffffff" stroke="none" stroke-width="0.5"/><path d="M259.16643,138.17048c-0.04591,2.65714 -6.9678,4.80674 -15.49977,4.80674c-8.56042,0 -15.5,-2.16396 -15.5,-4.83333c0,-0.10056 0.00985,-0.20041 0.02927,-0.29945" fill="none" stroke="#000000" stroke-width="1.5"/></g><path d="M239.23079,243.25641c0,-0.27614 0.22386,-0.5 0.5,-0.5c0.27614,0 0.5,0.22386 0.5,0.5c0,0.27614 -0.22386,0.5 -0.5,0.5c-0.27614,0 -0.5,-0.22386 -0.5,-0.5z" fill="#ffffff" stroke="none" stroke-width="0.5"/></g><path d="M129.63966,46.36637v-45.04504h222.22222v45.04505z" fill="#000000" stroke="#000000" stroke-width="5" stroke-linecap="butt"/><text transform="translate(191.20122,32.63303) scale(1.01422,1.01422)" font-size="40" xml:space="preserve" fill="#ffffff" fill-rule="nonzero" stroke="none" stroke-width="1" stroke-linecap="butt" stroke-linejoin="miter" stroke-miterlimit="10" stroke-dasharray="" stroke-dashoffset="0" font-family="Sans Serif" font-weight="normal" text-anchor="start" style="mix-blend-mode: normal"><tspan x="0" dy="0">Shop</tspan></text><path d="M104.86489,234.80481v-24.02402h270.27027v24.02402z" fill="#dc9300" stroke="#000000" stroke-width="1" stroke-linecap="butt"/><path d="M104.86489,285.35436v-49.54955h13.51352v49.54956z" fill="#dc9300" stroke="#000000" stroke-width="1" stroke-linecap="butt"/><path d="M122.88291,255.82583v-21.02102h9.00901v21.02102z" fill="#dc9300" stroke="#000000" stroke-width="1" stroke-linecap="butt"/><path d="M361.62165,284.35436v-49.54955h13.51351v49.54956z" fill="#dc9300" stroke="#000000" stroke-width="1" stroke-linecap="butt"/><path d="M345.10513,257.32732v-22.52252h9.00901v22.52252z" fill="#dc9300" stroke="#000000" stroke-width="1" stroke-linecap="butt"/><path d="M225.64213,163.9869l-5.2,2l-1.6,6.8l-1.6,2.4l-5.6,2.4l-7,4.8" fill="none" stroke="#ff0000" stroke-width="0.5" stroke-linecap="round"/><path d="M287.04213,180.5869l1,1l-8.8,2l-11.2,2.8l1.6,5.2v6l0.6,4l0.2,4.6l-0.4,4.4l-4.4,-0.2l-49.4,-0.2l-0.8,-3l-0.2,-8.6l0.2,-7.4l-1,-1.6l-1.8,-1.6" fill="none" stroke="#ff0000" stroke-width="0.5" stroke-linecap="round"/><path d="M282.24213,171.7869l-2,-1l-3.2,1l-3.6,0.6l-4.8,1.6l-3.2,0.6l-0.4,-4.2l-1.4,-4.8l-5,-2.4" fill="none" stroke="#ff0000" stroke-width="0.5" stroke-linecap="round"/><path d="M287.19663,180.77781c-0.60933,0.3713 -2.27474,-1.35691 -3.71979,-3.86005c-1.44504,-2.50314 -2.12252,-4.83334 -1.51319,-5.20464c0.60933,-0.3713 2.27474,1.35691 3.71979,3.86006c1.44504,2.50314 2.12252,4.83334 1.51319,5.20463z" fill="#ff0000" stroke="#000000" stroke-width="0.5" stroke-linecap="butt"/><path d="M260.03037,210.34849c-0.19569,0.14542 -0.3957,0.19542 -0.3957,0.19542l-0.75519,0.18768c-2.23284,0.64822 -4.35919,0.5743 -6.21168,-0.38421c-0.08225,0.03821 -0.1711,0.07385 -0.26598,0.10702l-0.0569,0.11379l-0.11601,-0.058c-1.43658,0.42795 -4.00777,0.3763 -6.10163,0.14934c-0.67152,0.11697 -1.37131,0.11724 -2.08515,-0.02263c-0.61767,-0.12103 -1.3054,-0.29253 -2.02909,-0.51295c-0.0878,0.0252 -0.18056,0.0387 -0.27646,0.0387c-0.15383,0 -0.29955,-0.03474 -0.42974,-0.09679c-1.26265,0.20643 -2.8389,0.53025 -3.22359,0.18605c-0.0509,-0.01082 -0.10037,-0.02551 -0.14809,-0.04375l-0.31196,0.05199l-0.02551,-0.15306h-0.30556v-0.0702h-0.03653c-0.0157,0.00502 -0.03143,0.01002 -0.04719,0.01498l-0.01482,0.05035c-0.02995,-0.00599 -0.05994,-0.01194 -0.08995,-0.01785c-3.09353,0.94466 -7.0644,0.82769 -9.97591,0.34244l-0.20024,-0.03337c-0.09137,0.02656 -0.60434,0.15528 -0.97134,-0.18144c-0.02916,-0.01052 -0.06081,-0.0231 -0.09395,-0.03805c-3.38468,0.15963 -8.84291,0.32647 -9.29575,-0.06168c-0.55399,-0.47484 -1.60061,-3.87869 -1.33611,-4.6722c0.08408,-0.25224 0.24525,-0.39766 0.44776,-0.47678c-0.77985,-2.53712 -0.49941,-8.24867 -0.35987,-8.68283c0.09053,-0.28169 -0.02089,-1.05613 0.0498,-1.69159c-0.12445,-0.25568 -0.21043,-0.53354 -0.25042,-0.82604l-0.39351,-2.55779l0.0278,-0.00427l-0.01843,-0.12906c-0.01123,-0.02498 -0.02235,-0.05002 -0.03333,-0.07514c-0.2096,-0.47896 -0.2022,-1.00361 -0.14742,-1.53825c-0.57664,-0.29161 -2.65027,-1.97306 -3.58052,-3.2827c-0.29049,0.10439 -0.60365,0.16126 -0.93008,0.16126c-1.51879,0 -2.75,-1.23121 -2.75,-2.75c0,-0.17556 0.01645,-0.34728 0.0479,-0.51369c-0.75741,0.22463 -1.33698,0.20855 -1.57012,-0.19944c-0.72966,-1.2769 5.9936,-5.76666 7.28616,-5.76666l0.21531,-0.10765c0.06975,-0.03672 0.14437,-0.06545 0.22265,-0.08495c0.09723,-0.14926 0.21004,-0.28628 0.34631,-0.4051c0.77979,-0.67996 1.97821,-0.64482 2.88762,-1.13816c0.36101,-0.19584 0.67587,-0.48566 0.98658,-0.77902c0.27053,-0.4989 0.50507,-1.03112 0.71493,-1.58022c-0.03209,-0.62529 0.07093,-1.21313 0.35754,-1.73047c0.14405,-1.16562 0.56623,-2.40346 1.18917,-3.50822c0.11793,-0.88942 0.02706,-1.58594 1.18058,-2.02438c0,0 0.18236,-0.06079 0.35862,0.00609c1.12463,-1.07771 2.50075,-1.68914 3.95639,-1.37807c-0.08375,-0.11698 -0.15974,-0.23898 -0.22684,-0.36643c0,0 -0.22361,-0.44721 0.22361,-0.67082c0.44721,-0.2236 0.67082,0.2236 0.67082,0.2236c0.53481,1.15761 2.41045,1.8431 3.52436,2.38119c2.42799,1.17287 5.07218,1.86871 7.76043,2.22519c1.33908,0.02109 2.80387,0.09564 3.95058,0.29552c0.19783,0.00425 0.39544,0.00703 0.59277,0.0084c6.91647,0.04781 12.11283,-2.83042 17.58878,-6.60438c0.12605,0.31018 0.36922,0.57069 0.66082,0.75742c-0.44412,0.30759 -0.88673,0.60931 -1.32878,0.90416c0.15753,0.04967 0.31807,0.11837 0.47346,0.20333c0.23256,-0.20285 0.54032,-0.04898 0.54032,-0.04898c1.14693,0.57661 2.27261,1.03479 3.02959,1.85325c0.09172,-0.10928 0.22933,-0.17876 0.38317,-0.17876c0.18532,0 0.3471,0.10082 0.43346,0.25061l0.26801,0.44669l-0.09055,0.05433l0.04524,0.13571l-0.15593,0.05197l0.2076,0.26158c-0.00099,0.00027 -0.00198,0.00055 -0.00297,0.00082c0.39997,0.49123 0.58209,1.6408 0.69725,2.81518c0.19361,0.05172 0.34094,0.21673 0.36664,0.41967l0.08987,0.62909l-0.01506,0.00215l0.01883,0.03312c0.00166,0.76582 0.00756,1.44665 -0.07629,2.14686l0.07074,-0.01179l0.08936,0.53616c0.00549,0.02966 0.00835,0.06024 0.00835,0.09149c0,0.08229 -0.01988,0.15994 -0.0551,0.22841c0.1445,0.33901 0.25184,0.68908 0.32737,1.0486c0.88623,-0.24891 1.95004,-0.4384 2.71614,-0.56295c0.08625,-0.06902 0.17167,-0.09749 0.17167,-0.09749l0.58869,-0.1941c1.41649,-0.20236 2.54413,-0.72772 3.76195,-0.95266c0.22873,-0.07724 0.45776,-0.15213 0.68492,-0.22705l-0.00952,-0.10471l0.98967,-0.08997c0.01693,-0.00173 0.03411,-0.00262 0.0515,-0.00262c0.09565,0 0.18502,0.02686 0.261,0.07345c0.96121,-0.25348 1.9193,-0.44886 2.84482,-0.53597c0.0836,-0.25327 0.29848,-0.44682 0.56408,-0.50009l0.71364,-0.15858l0.63119,-0.3156c0.10422,-0.05487 0.22294,-0.08593 0.34891,-0.08593c0.1562,0 0.30124,0.04774 0.42133,0.12944c0.16024,-0.05123 0.31646,-0.06515 0.45441,-0.02369c0.34352,0.10325 0.54275,0.25009 0.66561,0.42246c0.03454,-0.01802 0.07382,-0.02821 0.11548,-0.02821c0.03483,0 0.06799,0.00712 0.09812,0.01998l0.24473,0.09789l-0.00323,0.00809l0.02148,0.00007c0.16269,0.10469 0.27124,0.20835 0.33852,0.30676l0.08906,0.05919c0,0 0.20801,0.13868 0.06934,0.34669c-0.05111,0.07666 -0.11165,0.10623 -0.16771,0.11301c-0.0415,0.04665 -0.09228,0.08371 -0.14521,0.10886c0.16145,0.28043 0.21578,0.57166 0.18439,0.90489c1.11347,1.57608 2.50592,3.13163 3.29697,4.88439c0.13699,0.30354 0.34774,0.60856 0.52064,0.91774c0.02844,-0.01101 0.06239,-0.01757 0.10291,-0.01757c0.25,0 0.25,0.25 0.25,0.25c-0.08704,0.45575 1.18626,1.25427 1.04937,1.71772c-0.00108,0.00366 -0.00225,0.00722 -0.00351,0.01066c0.12523,0.01187 0.21752,0.05286 0.26115,0.13146c0.48071,0.86596 -0.05805,0.8048 -0.71031,0.47807c-0.46269,0.28499 -1.01971,0.52226 -1.56771,0.58268c-0.1005,0.0296 -0.21184,0.05443 -0.3379,0.07601l-0.0411,0.00685v0.04655h-0.3c-0.08035,0 -0.15186,-0.03791 -0.19759,-0.09682c-0.01637,0.00813 -0.03303,0.01642 -0.05,0.02489l-0.01123,-0.00011l0.00167,0.00417l-0.24474,0.0979c-0.03012,0.01287 -0.06329,0.01998 -0.09811,0.01998c-0.06378,0 -0.12198,-0.02389 -0.16615,-0.0632c-0.08332,0.01759 -0.17168,0.03522 -0.26586,0.05406l-0.28339,0.09447c-0.02642,0.0095 -0.0549,0.01467 -0.08459,0.01467c-0.02927,0 -0.05738,-0.00503 -0.08348,-0.01428c-0.13666,0.06422 -0.27785,0.11677 -0.42325,0.15552l-0.21013,0.12503c0,0 -0.16654,0.08327 -0.37515,0.08385c-0.0942,0.21548 -0.28672,0.37815 -0.52085,0.43129l-1.43932,0.35983l-0.04531,-0.18123c-3.08623,1.32459 -7.13012,2.21692 -10.49053,2.41966c-0.45758,0.11368 -0.81168,0.21131 -1.14605,0.26357c0.38035,1.47187 0.97274,4.64964 0.86697,6.53257c0.07463,0.1342 0.11926,0.28736 0.12485,0.45043c0.05032,0.10335 0.0886,0.20866 0.1117,0.31265c0.06745,0.30351 0.43602,4.86497 0.12519,7.22254c0.1305,0.16894 0.20815,0.3808 0.20815,0.61078c0,0.1291 -0.02446,0.25248 -0.069,0.36577c0.92758,2.08813 0.85155,7.13549 -0.05722,8.56356c-0.97217,1.52768 -6.3292,0.01964 -7.90366,0.01512c-0.25669,-0.00074 -0.98677,0.10303 -1.65841,0.04566c-0.1138,0.07613 -0.23695,0.11814 -0.35125,0.14017zM281.56406,174.82405c-0.00587,-0.00982 -0.01174,-0.01962 -0.0176,-0.02943c-0.00453,0.00068 -0.0091,0.00132 -0.01369,0.00192c0.01045,0.00914 0.02088,0.01832 0.03129,0.0275zM268.66541,204.4154c0.03855,-0.0635 0.05608,-0.15223 0.05798,-0.25964c-0.01815,0.0882 -0.03746,0.17479 -0.05798,0.25964z" fill="#ff0000" stroke="#000000" stroke-width="1" stroke-linecap="butt"/><path d="M266.17595,205.35984c0,0 -0.66436,-0.74741 0.08305,-1.41177c0.74741,-0.66436 1.41177,0.08305 1.41177,0.08305c0.06149,0.07579 0.12299,0.15157 0.18448,0.22736c0.18075,-0.17942 0.42967,-0.29027 0.70447,-0.29027c0.55228,0 1,0.44772 1,1c0,0.19113 -0.05362,0.36973 -0.14664,0.52159l-0.891,1.51469c-0.17156,0.30395 -0.49754,0.50917 -0.87146,0.50917c-0.55228,0 -1,-0.44772 -1,-1v-0.70618c-0.15823,-0.14921 -0.31645,-0.29843 -0.47468,-0.44764z" fill="#ff0000" stroke="none" stroke-width="0.5" stroke-linecap="butt"/><path d="M258.37791,162.24091l-3.63636,2.63636l-8.63636,3.45455l-4.18182,-0.09091l-7.09091,-0.54545l-6,-2l-3,-2.63636l3.09091,-4.63636l5.09091,2.27273l3.81818,1.54545l4.81818,0.81818l2.81818,0.45455l3.27273,-0.54545l4.09091,-1.18182l3.63636,-1.54545z" fill="#ff0000" stroke="#000000" stroke-width="0.5" stroke-linecap="round"/><path d="M258.73382,163.54678c-0.08978,0.71822 -0.63443,0.8516 -0.92844,0.8705l-0.84108,1.00929l-0.30376,-0.25314c-0.02915,0.02476 -0.05828,0.04892 -0.08738,0.0725c-0.43694,0.42248 -0.93338,0.765 -1.48987,0.96303l-0.08978,-0.10904l0.02323,0.12388l-0.46094,0.08643l0.001,0.00548l-0.026,0.00473l-0.53669,0.53669l-0.01859,-0.01859l-0.02159,0.05662c-0.46818,0.36767 -1.51456,1.05538 -2.60339,1.57264c-0.87263,0.61911 -1.89521,1.02166 -2.73922,0.82624l-0.82918,0.45228c-0.14598,0.08335 -0.31499,0.13098 -0.49513,0.13098c-0.27349,0 -0.52134,-0.10979 -0.70187,-0.2877c-3.23257,0.43037 -6.45159,0.99287 -9.65395,0.89551c-0.30047,0.03814 -0.58783,0.07605 -0.85783,0.1157l0.00933,0.12601l-1.98393,0.14696c-0.02785,0.00233 -0.05603,0.00352 -0.08448,0.00352c-0.55228,0 -1,-0.44772 -1,-1c0,-0.51085 0.38305,-0.93223 0.8776,-0.99258l0.32526,-0.04484c-0.94006,-0.17364 -1.85624,-0.40876 -2.72967,-0.71298c-0.69437,0.04169 -1.42372,0.02181 -2.22988,-0.06826c-0.33177,-0.03707 -3.4602,-0.25638 -2.94087,-1.65903c-0.09142,-0.06986 -0.17043,-0.15513 -0.23316,-0.25194c-0.02289,0.00157 -0.04599,0.00236 -0.06928,0.00236c-0.55228,0 -1,-0.44772 -1,-1c0,-0.06789 0.00677,-0.1342 0.01966,-0.1983l0.17829,-0.98059l0.03917,0.00712c0.01791,-0.83986 0.33841,-1.59657 1.54702,-1.73571c0.23837,-0.02744 0.38996,0.14365 0.52099,0.37347c0.21491,-0.21807 0.62346,-0.47674 1.19101,-0.15243c0.86824,0.49614 0.3721,1.36438 0.3721,1.36438c-0.00553,0.00961 -0.01105,0.01922 -0.01658,0.02884c0.76435,0.15284 1.69625,0.21642 2.11329,0.32186c3.59621,0.90925 7.08581,0.8637 10.74961,1.24701l1.43142,0.08946c0.52667,0.02859 0.94493,0.4647 0.94493,0.99851c0,0.06808 -0.0068,0.13457 -0.01977,0.19883c0.09658,-0.01959 0.19331,-0.03982 0.29019,-0.06068l-0.00852,-0.03123l1.90743,-0.52021c0.09038,-0.02685 0.18612,-0.04126 0.28522,-0.04126c0.30955,0 0.58625,0.14065 0.76968,0.36153c0.44895,-0.35991 1.18597,-0.50566 1.71831,-0.75999c2.14859,-1.02653 4.63034,-2.2632 6.90877,-2.95406l0.1487,0.04088v-0.05199h0.24773l1.51267,-0.26501c0,0 0.99228,0.12403 0.86824,1.11631z" fill="#ff0000" stroke="none" stroke-width="0.5" stroke-linecap="butt"/><text transform="translate(218.95989,182.2812) scale(0.19772,0.19772)" font-size="40" xml:space="preserve" fill="#000000" fill-rule="nonzero" stroke="none" stroke-width="1" stroke-linecap="butt" stroke-linejoin="miter" stroke-miterlimit="10" stroke-dasharray="" stroke-dashoffset="0" font-family="Sans Serif" font-weight="normal" text-anchor="start" style="mix-blend-mode: normal"><tspan x="0" dy="0">I❤Popcorn</tspan></text><path d="M280.18278,172.20446c2.17504,-1.86432 7.12534,6.01398 6.95344,8.39685c-0.05539,0.76788 -1.15818,0.5835 -1.94643,0.13992c-0.33696,-0.07516 -0.60979,-0.32036 -0.72378,-0.64086c-0.05655,-0.10586 -0.07905,-0.21055 -0.05721,-0.30883c-0.00023,-0.00875 -0.00034,-0.01753 -0.00034,-0.02633c0,-0.10873 0.01735,-0.2134 0.04944,-0.3114c0.03375,-0.39535 -0.0403,-0.79045 -0.19108,-1.18135c-0.55285,0.71573 -1.32972,0.19782 -1.32972,0.19782l-0.67387,-0.51776c-0.12311,-0.16772 -0.27766,-0.36389 -0.43764,-0.57783c-0.14169,0.07697 -0.30406,0.12069 -0.47665,0.12069c-0.31149,0 -0.58971,-0.14241 -0.77311,-0.36568l-0.7094,-0.85128c0,0 -0.46162,-0.55394 -0.1305,-1.11304l-0.25233,-0.45419c-0.08563,-0.14743 -0.13466,-0.31875 -0.13466,-0.50152c0,-0.48039 0.33873,-0.88166 0.79038,-0.97799c-0.23813,-0.41147 -0.26876,-0.75958 0.04346,-1.0272z" fill="#ff0000" stroke="none" stroke-width="0.5" stroke-linecap="butt"/></g></g></svg>