<svg version="1.1" xmlns="http://www.w3.org/2000/svg" xmlns:xlink="http://www.w3.org/1999/xlink" width="478" height="23.00001" viewBox="0,0,478,23.00001"><g transform="translate(-1.00001,-168.08333)"><g data-paper-data="{&quot;isPaintingLayer&quot;:true}" fill-rule="nonzero" stroke-linejoin="miter" stroke-miterlimit="10" stroke-dasharray="" stroke-dashoffset="0" style="mix-blend-mode: normal"><path d="M1.00001,191.00002v-22l187.9471,0c-0.22966,0.61692 -0.16493,1.41817 0.11575,2.11039c0.02191,0.43346 0.07828,0.83978 0.17809,1.19339c0.02673,0.2996 0.08125,0.58647 0.16665,0.85381c-0.31972,0.3053 -0.53418,0.68948 -0.54092,1.09239c-0.05712,3.41387 -1.20477,10.26357 0.16662,12.89079c-1.3693,0.55624 -2.15969,1.64798 -0.49162,3.14046c0.09695,0.08675 0.20756,0.16355 0.32933,0.23067c-0.12468,0.13856 -0.23968,0.30243 -0.34534,0.48809z" fill="#808080" stroke="none" stroke-width="0" stroke-linecap="butt"/><path d="M479.00001,169.00002v22l-191.58696,0c-0.00213,-0.00208 -0.00426,-0.00416 -0.0064,-0.00623c0.01759,-0.11316 0.03399,-0.23084 0.04913,-0.35316c0.84087,-0.36431 1.39862,-0.95799 1.1218,-1.78845c-0.25931,-0.77794 -0.7647,-1.24748 -1.38062,-1.48001c0.04951,-0.04698 0.09983,-0.09602 0.15097,-0.14717c0.91857,-0.91857 0.2144,-2.59197 0.21875,-3.89101c0.00991,-2.96055 0.23572,-4.57433 0.2,-8.58399c-0.00485,-0.54387 -0.13872,-1.1165 -0.3599,-1.65467c0.10175,-0.19231 0.1599,-0.40788 0.1599,-0.64533c0,-0.38069 -0.02926,-0.69711 -0.08281,-0.95739c0.29468,-0.17401 0.51071,-0.39578 0.60023,-0.66433c0.27002,-0.81007 0.35085,-1.40463 0.29218,-1.82828z" fill="#808080" stroke="none" stroke-width="0" stroke-linecap="butt"/><path d="" fill="#808080" stroke="none" stroke-width="0" stroke-linecap="butt"/><path d="M287.29688,187.27562l0.00226,0.13776" fill="none" stroke="#000000" stroke-width="0.5" stroke-linecap="round"/><path d="M4.33335,189.33334l183.29373,-0.38833" fill="none" stroke="#000000" stroke-width="3.5" stroke-linecap="round"/><path d="M288.53435,188.73122l187.799,-0.39788" fill="none" stroke="#000000" stroke-width="3.5" stroke-linecap="round"/><path d="M3.83334,170.83334l185.03258,-0.39202" fill="none" stroke="#000000" stroke-width="3.5" stroke-linecap="round"/><path d="M288.25936,170.23074l187.57398,-0.3974" fill="none" stroke="#000000" stroke-width="3.5" stroke-linecap="round"/></g></g></svg>